<svg xmlns="http://www.w3.org/2000/svg" viewBox="0 0 841.9 595.3" enable-background="new 0 0 841.9 595.3">
  <path fill="#000000" d="M719.6,290.1c0,159.5-130.4,289.1-291.2,289.1c-51.1,0-99.1-13.2-140.9-35.9l-161.4,51.1 l52.6-155c-26.6-43.6-41.9-94.6-41.9-149.2C137,130.4,267.3,1,428.4,1C589.2,1,719.6,130.4,719.6,290.1z M428.4,47 c-135.1,0-244.9,109-244.9,243c0,53.2,17.4,102.4,46.7,142.4l-30.7,90.4l94-29.8c38.7,25.3,85,40.2,134.8,40.2 c135.1,0,244.8-109,244.8-243S563.3,47,428.4,47z M575.3,356.7c-1.8-2.8-6.6-4.8-13.7-8.2c-7.2-3.5-42.3-20.8-48.8-23.1 c-6.5-2.3-11.3-3.5-16.1,3.5c-4.8,7.1-18.4,23.1-22.6,27.9c-4.2,4.8-8.3,5.4-15.6,1.7c-7.2-3.5-30.1-11-57.4-35.1 c-21.2-18.8-35.6-42-39.7-49.1s-0.4-10.9,3.1-14.4c3.3-3.1,7.2-8.2,10.6-12.4c3.5-4.1,4.8-7.1,7.2-11.9s1.1-8.8-0.6-12.4 c-1.7-3.5-16.1-38.3-22.1-52.6c-5.9-14.1-11.9-11.9-16.1-11.9s-8.9-0.6-13.7-0.6c-4.8,0-12.4,1.7-19,8.8c-6.5,7.1-25,24.2-25,59.1 s25.6,68.4,29.1,73.3c3.5,4.8,49.4,78.6,121.9,106.9c72.5,28.3,72.5,19,85.7,17.7c13.2-1.1,42.1-17.1,48.2-33.7 C577.1,373.8,577.1,359.5,575.3,356.7z"></path>
</svg>